<?xml version="1.0" encoding="utf-8"?>
<!-- Generator: Adobe Illustrator 27.6.1, SVG Export Plug-In . SVG Version: 6.00 Build 0)  -->
<svg version="1.1" id="Capa_1" xmlns="http://www.w3.org/2000/svg" xmlns:xlink="http://www.w3.org/1999/xlink" x="0px" y="0px"
	 viewBox="0 0 540 540" style="enable-background:new 0 0 540 540;" xml:space="preserve">
<style type="text/css">
	.st0{fill:#FFFFFF;}
</style>
<g>
	<path class="st0" d="M269.4,413.4c-78.2,0.6-144.7-61.7-144.8-142.8c-0.2-83.6,68-144.8,145.8-144.2
		c79.8,0.7,144.2,63.9,144.8,141.8C415.9,349.4,348.8,414.7,269.4,413.4z"/>
	<path class="st0" d="M491.5,290c-6.4,0-12.8,0.1-19.2,0c-13.4-0.2-23.2-9.4-23.3-22c-0.1-12.5,9.7-22,23.1-22.2
		c13.4-0.1,26.8-0.2,40.1,0.1c9.3,0.2,16.6,4.3,20.6,13.1c3.8,8.6,2.2,16.6-3.8,23.5c-4.2,4.8-9.6,7.3-16,7.4
		C505.8,290.1,498.6,290,491.5,290C491.5,290,491.5,290,491.5,290z"/>
	<path class="st0" d="M127.7,152.5c-8.2,0-13.1-1.9-17.1-5.8c-10.2-10.1-20.5-20-30.5-30.2c-7.8-8-7.7-20.7,0-29.5
		c7.2-8.2,20.6-10.1,28.9-3.3c12.3,10.2,23.7,21.4,34.3,33.3c6.3,7.1,5.8,16,1.7,24.4C141.1,149.7,133.7,152.3,127.7,152.5z"/>
	<path class="st0" d="M412.5,149.3c-11.4-0.3-18.4-4.3-22-12.6c-3.9-8.8-2.8-17.3,4.2-24.4c9.6-9.8,19.3-19.5,29.2-29.1
		c8.8-8.5,23.3-8.2,31.8,0.3c8.8,8.9,8.7,21.6-0.5,30.9c-9.7,9.7-19.6,19.3-29.5,28.8C421.4,147.4,416.3,149.5,412.5,149.3z"/>
	<path class="st0" d="M464.7,438.2c-0.1,9.1-4.3,15.8-12.4,19.8c-8.2,4-16.4,3.3-23.1-2.8c-11-10-21.8-20.2-32-30.9
		c-8.4-8.8-7.5-22.2,0.9-30.2c9.1-8.6,22.2-8.7,31.2,0c9.4,9,18.7,18.1,28.1,27.1C462.3,425.7,464.9,431.4,464.7,438.2z"/>
	<path class="st0" d="M294,490c0,7,0.2,13.9,0,20.9c-0.3,11.9-9.8,21.1-21.6,21.2c-11.9,0.1-22.1-8.7-22.5-20.4
		c-0.5-14.5-0.5-29,0-43.4c0.4-11.7,11.3-21.4,22.7-21.1c12,0.3,21.3,9.8,21.6,22C294.1,476.1,294,483.1,294,490z"/>
	<path class="st0" d="M289.5,50.3c0,6.8,0.1,13.6,0,20.3c-0.2,12.4-8.8,21.5-20.7,22.2c-11.4,0.7-21.6-7.4-22.8-19.3
		c-1.6-15.1-1.5-30.4-0.1-45.5c1.2-13,11.6-21.1,23.8-20c11.4,1,19.7,10.5,19.8,23.1C289.6,37.5,289.5,43.9,289.5,50.3z"/>
	<path class="st0" d="M150.9,412.6c0,5.3-1.5,10.1-5.4,14c-9.9,10.1-19.6,20.3-29.6,30.2c-9.3,9.2-22.7,8.9-31.9-0.5
		c-8.8-9-8.6-21.4,0.7-30.8c9.2-9.4,18.5-18.8,27.8-28.1c6.4-6.4,17.1-8.4,25.5-4.8C145.8,395.8,150.9,403.9,150.9,412.6z"/>
	<path class="st0" d="M51.8,293.6c-9.1,0-18.3,0.6-27.4-0.2c-12.2-1-19.6-10.3-19.2-22.5c0.3-11.1,9.4-20.5,20.8-20.8
		c14.6-0.4,29.3-0.4,43.9,0c12.1,0.4,21.5,11.4,20.8,23.3c-0.7,11.8-10.9,20.6-23,20.2C62.4,293.4,57.1,293.6,51.8,293.6z"/>
</g>
</svg>
