<?xml version="1.0" encoding="utf-8"?>
<!-- Generator: Adobe Illustrator 27.5.0, SVG Export Plug-In . SVG Version: 6.00 Build 0)  -->
<svg version="1.1" id="Capa_1" xmlns="http://www.w3.org/2000/svg" xmlns:xlink="http://www.w3.org/1999/xlink" x="0px" y="0px"
	 viewBox="0 0 695 1141.1" style="enable-background:new 0 0 695 1141.1;" xml:space="preserve">
<style type="text/css">
	.st0{fill:#62B6CB;}
	.st1{fill:#2708A0;}
	.st2{clip-path:url(#SVGID_00000045618942940046025530000012328036754285905827_);fill:#FFFFFF;}
	
		.st3{clip-path:url(#SVGID_00000045618942940046025530000012328036754285905827_);fill:url(#SVGID_00000167398758456587664570000003186946389890101134_);}
	
		.st4{clip-path:url(#SVGID_00000045618942940046025530000012328036754285905827_);fill:url(#SVGID_00000109008500523437701320000015000977563966628511_);}
	.st5{fill:#3A5683;}
	.st6{fill:#00D084;}
	.st7{fill:none;}
	.st8{fill:#FFF500;}
</style>
<image style="overflow:visible;" width="670" height="1077" xlink:href="home-left-bg.png"  transform="matrix(1 0 0 1 1266.6479 30.0473)">
</image>
<path class="st0" d="M1176.2,149.9h-172.4c-11.5,0-20.9-9.4-20.9-20.9V-43.4c0-11.5,9.4-20.9,20.9-20.9h172.4
	c11.5,0,20.9,9.4,20.9,20.9V129C1197.1,140.5,1187.8,149.9,1176.2,149.9z"/>
<path class="st1" d="M1254.7,1273.9h-172.4c-11.5,0-20.9-9.4-20.9-20.9v-172.4c0-11.5,9.4-20.9,20.9-20.9h172.4
	c11.5,0,20.9,9.4,20.9,20.9V1253C1275.6,1264.5,1266.2,1273.9,1254.7,1273.9z"/>
<g>
	
		<image style="overflow:visible;opacity:0.75;" width="1126" height="1126" xlink:href="D82EB6CE70F9EAF9.png"  transform="matrix(1 0 0 1 -442.6683 -2.8861)">
	</image>
	<g>
		<g>
			<defs>
				<circle id="SVGID_1_" cx="113.5" cy="542.2" r="547.6"/>
			</defs>
			<clipPath id="SVGID_00000162347683535958024410000000001567565985828522_">
				<use xlink:href="#SVGID_1_"  style="overflow:visible;"/>
			</clipPath>
		</g>
		<g>
			<defs>
				<circle id="SVGID_00000156575761754362259550000001450306307700866447_" cx="113.5" cy="542.2" r="547.6"/>
			</defs>
			<clipPath id="SVGID_00000156552052381891238140000016142180741934725032_">
				<use xlink:href="#SVGID_00000156575761754362259550000001450306307700866447_"  style="overflow:visible;"/>
			</clipPath>
			
				<rect y="-59.9" style="clip-path:url(#SVGID_00000156552052381891238140000016142180741934725032_);fill:#FFFFFF;" width="670.3" height="1201"/>
			
				<linearGradient id="SVGID_00000062179146473998073770000014231047514436885165_" gradientUnits="userSpaceOnUse" x1="-2.0491" y1="73.7537" x2="670.3317" y2="73.7537">
				<stop  offset="0" style="stop-color:#62B6CB"/>
				<stop  offset="0.2976" style="stop-color:#8DCAD9"/>
				<stop  offset="0.9673" style="stop-color:#FAFCFD"/>
				<stop  offset="1" style="stop-color:#FFFFFF"/>
			</linearGradient>
			
				<rect x="-2" y="-58.9" style="clip-path:url(#SVGID_00000156552052381891238140000016142180741934725032_);fill:url(#SVGID_00000062179146473998073770000014231047514436885165_);" width="672.4" height="265.3"/>
			
				<linearGradient id="SVGID_00000036248569610059022720000018282943445106391941_" gradientUnits="userSpaceOnUse" x1="68.0767" y1="800.3308" x2="643.5139" y2="1165.2323">
				<stop  offset="0" style="stop-color:#2708A0"/>
				<stop  offset="0.195" style="stop-color:#4D33B1"/>
				<stop  offset="0.6319" style="stop-color:#AB9FDA"/>
				<stop  offset="1" style="stop-color:#FFFFFF"/>
			</linearGradient>
			
				<rect x="-2" y="797" style="clip-path:url(#SVGID_00000156552052381891238140000016142180741934725032_);fill:url(#SVGID_00000036248569610059022720000018282943445106391941_);" width="672.4" height="344.1"/>
		</g>
		<g>
			<defs>
				<circle id="SVGID_00000164483928284387722340000011989203937703210931_" cx="113.5" cy="542.2" r="547.6"/>
			</defs>
			<clipPath id="SVGID_00000181084607493977861810000010104741513553473707_">
				<use xlink:href="#SVGID_00000164483928284387722340000011989203937703210931_"  style="overflow:visible;"/>
			</clipPath>
		</g>
	</g>
</g>
<g>
	
		<image style="overflow:visible;opacity:0.75;" width="831" height="662" xlink:href="D82EB6CE70F9EAFE.png"  transform="matrix(1 0 0 1 -160.6684 620.1139)">
	</image>
	<g>
		<g>
			
				<image style="overflow:visible;" width="612" height="563" xlink:href="frutaslamana.png"  transform="matrix(0.8395 0 0 0.8395 111.3507 671.4612)">
			</image>
			
				<image style="overflow:visible;" width="671" height="700" xlink:href="../../../../../Downloads/colibrie.png"  transform="matrix(0.8153 0 0 0.8153 -137.8348 636.9117)">
			</image>
		</g>
	</g>
</g>
<g>
	<polygon class="st5" points="-1054.7,105.6 -1054.7,105.6 -1148.9,105.6 	"/>
	<path class="st5" d="M-1165.6,89c-6.2,0.2-8.3,5.4-8.3,8.3c0,0.8,0,21.5,0,21.7c0,0.2,0,0.4,0,0.6c0,0,0,0,0,0V287
		c0,4.6,3.7,8.3,8.3,8.3h110.7h8.3V287v-8.3h-8.3h-94.1h-8.3v-8.3V135.1c0-5.2,0-21.1,0-21.1c0-3.5,2.8-8.3,8.3-8.3l94.2,0l8.3,0
		v-8.3v0V89L-1165.6,89z"/>
	<path class="st6" d="M-1046.8,168.9c0,0,0.3,63.1-61.2,103.5h58.3h3.2L-1046.8,168.9z"/>
	<path class="st7" d="M-1046.6,140.1v3.8C-1046.5,142.3-1046.5,141.1-1046.6,140.1z"/>
	<path class="st6" d="M-1049.7,112.6h-23.7c0,0,2.1,27.5-0.3,53.8c-4.8,51.9-26.9,86.5-26.9,86.5c48.3-42.1,54.1-86.5,54.1-109v-3.8
		v-24.3v-3.2H-1049.7z"/>
	<path class="st8" d="M-1082.9,112.6c0,0-3.1,75.3-68,119.4v37.2v3.2h3.2h21.2C-1066,217.1-1082.9,112.6-1082.9,112.6z"/>
	<path class="st5" d="M-1101.1,112.6h-6.5h-31.6h-8.6c-1.8,0-3.2,1.4-3.2,3.2v96.9v12.6c3-2.7,5.9-5.4,8.6-8.2
		c17.5-18.3,27.7-38.4,33.5-56.1h-16.6c0,0,0.3,11.6-7.9,17.9v-29.7h27.9c2.9-11.9,4-22,4.3-28.6
		C-1100.9,115.7-1101,113-1101.1,112.6z"/>
	<path d="M-1105.5,149.1L-1105.5,149.1C-1105.5,149.2-1105.5,149.2-1105.5,149.1C-1105.5,149.2-1105.5,149.2-1105.5,149.1z"/>
	<path d="M-1108.8,160.9c0,0,0-0.2,0.1-0.4C-1108.7,160.6-1108.8,160.8-1108.8,160.9L-1108.8,160.9z"/>
	<g>
		<g>
			<path class="st5" d="M-993,94.8v8.7c-4.2-3.5-8.6-5.3-13.1-5.3c-5,0-9.2,1.8-12.6,5.4c-3.4,3.6-5.2,7.9-5.2,13.1
				c0,5.1,1.7,9.4,5.2,12.9c3.4,3.5,7.6,5.2,12.6,5.2c2.6,0,4.8-0.4,6.6-1.3c1-0.4,2-1,3.1-1.7c1.1-0.7,2.2-1.6,3.4-2.6v8.8
				c-4.2,2.4-8.6,3.6-13.2,3.6c-6.9,0-12.9-2.4-17.8-7.3c-4.9-4.9-7.3-10.8-7.3-17.7c0-6.2,2-11.7,6.1-16.5c5-5.9,11.5-8.9,19.5-8.9
				C-1001.3,91.2-997.1,92.4-993,94.8z"/>
			<path class="st5" d="M-954.1,128.9h-20.8l-5.4,11.8h-7.9l24-51.6l23.2,51.6h-8L-954.1,128.9z M-957.1,122.1l-7.2-16.5l-7.5,16.5
				H-957.1z M-953,79.1l-12.8,8.7l-3.5-2.9l10.1-10.1L-953,79.1z"/>
			<path class="st5" d="M-936.6,140.7l10.2-52.2l16.7,37.7l17.3-37.7l9.2,52.2h-7.5l-4.7-29.3l-14.4,31.5l-14-31.6l-5.2,29.3H-936.6
				z"/>
			<path class="st5" d="M-844.5,128.9h-20.8l-5.4,11.8h-7.9l24-51.6l23.2,51.6h-8L-844.5,128.9z M-847.5,122.1l-7.2-16.5l-7.5,16.5
				H-847.5z"/>
			<path class="st5" d="M-808.9,120l15,20.7h-9l-13.9-19.9h-1.3v19.9h-7.3V92.2h8.6c6.4,0,11,1.2,13.9,3.6c3.1,2.7,4.7,6.2,4.7,10.6
				c0,3.4-1,6.4-3,8.9C-803.1,117.8-805.7,119.3-808.9,120z M-818,114.5h2.3c6.9,0,10.4-2.7,10.4-8c0-5-3.4-7.4-10.1-7.4h-2.6V114.5
				z"/>
			<path class="st5" d="M-758.1,128.9h-20.8l-5.4,11.8h-7.9l24-51.6l23.2,51.6h-8L-758.1,128.9z M-761.1,122.1l-7.2-16.5l-7.5,16.5
				H-761.1z"/>
		</g>
		<g>
			<path class="st6" d="M-1021.6,246.7v41.7h14.3v6.9h-21.6v-48.5H-1021.6z"/>
			<path class="st6" d="M-969.1,283.4h-20.8l-5.4,11.8h-7.9l24-51.6l23.2,51.6h-8L-969.1,283.4z M-972.1,276.6l-7.2-16.5l-7.5,16.5
				H-972.1z"/>
			<path class="st6" d="M-931.8,295.2l10.2-52.2l16.7,37.7l17.3-37.7l9.2,52.2h-7.5l-4.7-29.3l-14.4,31.5l-14-31.6l-5.2,29.3H-931.8
				z"/>
			<path class="st6" d="M-839.7,283.4h-20.8l-5.4,11.8h-7.9l24-51.6l23.2,51.6h-8L-839.7,283.4z M-842.7,276.6l-7.2-16.5l-7.5,16.5
				H-842.7z"/>
			<path class="st6" d="M-820.5,295.2v-51.8l35.4,37v-33.7h7.3v51.5l-35.4-36.9v34H-820.5z"/>
			<path class="st6" d="M-737.3,283.4H-758l-5.4,11.8h-7.9l24-51.6l23.2,51.6h-8L-737.3,283.4z M-740.3,276.6l-7.2-16.5l-7.5,16.5
				H-740.3z M-736.2,233.7l-12.8,8.7l-3.5-2.9l10.1-10.1L-736.2,233.7z"/>
		</g>
		<g>
			<path class="st5" d="M-933.4,172.1v8.7c-4.2-3.5-8.6-5.3-13.1-5.3c-5,0-9.2,1.8-12.6,5.4c-3.4,3.6-5.2,7.9-5.2,13.1
				c0,5.1,1.7,9.4,5.2,12.9c3.4,3.5,7.6,5.2,12.6,5.2c2.6,0,4.8-0.4,6.6-1.3c1-0.4,2-1,3.1-1.7c1.1-0.7,2.2-1.6,3.4-2.6v8.8
				c-4.2,2.4-8.6,3.6-13.2,3.6c-6.9,0-12.9-2.4-17.8-7.3c-4.9-4.9-7.3-10.8-7.3-17.7c0-6.2,2-11.7,6.1-16.5c5-5.9,11.5-8.9,19.5-8.9
				C-941.7,168.5-937.5,169.7-933.4,172.1z"/>
			<path class="st5" d="M-926.9,193.5c0-6.8,2.5-12.7,7.5-17.6c5-4.9,11-7.4,18-7.4c6.9,0,12.8,2.5,17.8,7.4
				c5,4.9,7.4,10.9,7.4,17.8c0,7-2.5,12.9-7.5,17.8c-5,4.9-11.1,7.3-18.1,7.3c-6.3,0-11.9-2.2-16.9-6.5
				C-924.2,207.6-926.9,201.3-926.9,193.5z M-919.5,193.6c0,5.4,1.8,9.8,5.4,13.2c3.6,3.5,7.7,5.2,12.4,5.2c5.1,0,9.4-1.8,12.9-5.3
				c3.5-3.6,5.2-7.9,5.2-13c0-5.2-1.7-9.5-5.2-13c-3.4-3.5-7.7-5.3-12.8-5.3c-5.1,0-9.3,1.8-12.8,5.3
				C-917.8,184.2-919.5,188.5-919.5,193.6z"/>
			<path class="st5" d="M-868.7,218l10.2-52.2l16.7,37.7l17.3-37.7l9.2,52.2h-7.5l-4.7-29.3l-14.4,31.5l-14-31.6l-5.2,29.3H-868.7z"
				/>
			<path class="st5" d="M-778.3,176.3h-19.5V188h18.9v6.9h-18.9v16.2h19.5v6.9h-26.8v-48.5h26.8V176.3z"/>
			<path class="st5" d="M-752.2,197.3l15,20.7h-9l-13.9-19.9h-1.3V218h-7.3v-48.5h8.6c6.4,0,11,1.2,13.9,3.6
				c3.1,2.7,4.7,6.2,4.7,10.6c0,3.4-1,6.4-3,8.9C-746.4,195-749,196.6-752.2,197.3z M-761.3,191.7h2.3c6.9,0,10.4-2.7,10.4-8
				c0-5-3.4-7.4-10.1-7.4h-2.6V191.7z"/>
			<path class="st5" d="M-695.1,172.1v8.7c-4.2-3.5-8.6-5.3-13.1-5.3c-5,0-9.2,1.8-12.6,5.4c-3.4,3.6-5.2,7.9-5.2,13.1
				c0,5.1,1.7,9.4,5.2,12.9c3.4,3.5,7.6,5.2,12.6,5.2c2.6,0,4.8-0.4,6.6-1.3c1-0.4,2-1,3.1-1.7c1.1-0.7,2.2-1.6,3.4-2.6v8.8
				c-4.2,2.4-8.6,3.6-13.2,3.6c-6.9,0-12.9-2.4-17.8-7.3c-4.9-4.9-7.3-10.8-7.3-17.7c0-6.2,2-11.7,6.1-16.5c5-5.9,11.5-8.9,19.5-8.9
				C-703.4,168.5-699.2,169.7-695.1,172.1z"/>
			<path class="st5" d="M-678.6,169.4V218h-7.3v-48.5H-678.6z"/>
			<path class="st5" d="M-669.3,193.5c0-6.8,2.5-12.7,7.5-17.6c5-4.9,11-7.4,18-7.4c6.9,0,12.8,2.5,17.8,7.4
				c5,4.9,7.4,10.9,7.4,17.8c0,7-2.5,12.9-7.5,17.8c-5,4.9-11.1,7.3-18.1,7.3c-6.3,0-11.9-2.2-16.9-6.5
				C-666.6,207.6-669.3,201.3-669.3,193.5z M-661.9,193.6c0,5.4,1.8,9.8,5.4,13.2c3.6,3.5,7.7,5.2,12.4,5.2c5.1,0,9.4-1.8,12.9-5.3
				c3.5-3.6,5.2-7.9,5.2-13c0-5.2-1.7-9.5-5.2-13c-3.4-3.5-7.7-5.3-12.8-5.3c-5.1,0-9.3,1.8-12.8,5.3
				C-660.2,184.2-661.9,188.5-661.9,193.6z"/>
			<g>
				<path class="st5" d="M-1025.7,204.7v-23.4h4.9c2.4,0,4.2,0.2,5.6,0.7c1.5,0.5,2.8,1.2,4,2.3c2.4,2.2,3.6,5.1,3.6,8.7
					c0,3.6-1.3,6.5-3.8,8.7c-1.3,1.1-2.6,1.9-4,2.3c-1.3,0.4-3.1,0.7-5.5,0.7H-1025.7z M-1022.2,201.4h1.6c1.6,0,2.9-0.2,4-0.5
					c1.1-0.4,2-0.9,2.8-1.7c1.7-1.6,2.6-3.6,2.6-6.2c0-2.6-0.9-4.6-2.6-6.2c-1.5-1.4-3.8-2.1-6.8-2.1h-1.6V201.4z"/>
				<path class="st5" d="M-990.3,184.6h-9.4v5.6h9.1v3.3h-9.1v7.8h9.4v3.3h-12.9v-23.4h12.9V184.6z"/>
			</g>
			<rect x="-1025.7" y="168.5" class="st6" width="35.4" height="1.8"/>
			<rect x="-1025.7" y="217.9" class="st6" width="35.4" height="1.8"/>
		</g>
	</g>
	
		<text transform="matrix(1 0 0 1 -1173.8986 341.8878)" class="st5" style="font-family:'MyriadPro-Regular'; font-size:29.0441px;">Conectando negocios, creando oportunidades</text>
</g>
</svg>
