<?xml version="1.0" encoding="utf-8"?>
<!-- Generator: Adobe Illustrator 27.5.0, SVG Export Plug-In . SVG Version: 6.00 Build 0)  -->
<svg version="1.1" id="Capa_1" xmlns="http://www.w3.org/2000/svg" xmlns:xlink="http://www.w3.org/1999/xlink" x="0px" y="0px"
	 viewBox="0 0 1987.3 953.7" style="enable-background:new 0 0 1987.3 953.7;" xml:space="preserve">
<style type="text/css">
	.st0{fill:none;}
	.st1{fill:#00D084;}
	.st2{fill:#3A5683;}
	.st3{fill:#2708A0;}
	.st4{fill:#62B6CB;}
	.st5{fill:#FFF500;}
	.st6{font-family:'MyriadPro-Regular';}
	.st7{font-size:96px;}
</style>
<g>
	<polygon class="st2" points="443.4,133.5 443.4,133.5 131.9,133.5 	"/>
	<path class="st2" d="M76.9,78.5C56.3,79.1,49.4,96.2,49.4,106c0,2.6,0,71.1,0,71.6c0,0.6,0,1.3,0,1.9c0,0,0,0,0,0V733
		c0,15.2,12.3,27.5,27.5,27.5h365.9h27.5V733v-27.5h-27.5H131.9h-27.5V678V230.9c0-17.2,0-69.9,0-69.9c0-11.7,9.1-27.5,27.5-27.5
		l311.5,0l27.5,0V106v0V78.5L76.9,78.5z"/>
	<path class="st1" d="M469.4,342.5c0,0,0.9,208.5-202.4,342h192.8h10.5L469.4,342.5z"/>
	<path class="st0" d="M470.3,247.4v12.7C470.4,254.9,470.4,250.7,470.3,247.4z"/>
	<path class="st1" d="M459.8,156.5h-78.5c0,0,7.1,90.9-0.9,178c-15.7,171.4-88.9,285.8-88.9,285.8C451,481,470.3,334.2,470.3,260.1
		v-12.7V167v-10.5H459.8z"/>
	<path class="st5" d="M350.2,156.5c0,0-10.1,249-224.8,394.6v123v10.5h10.5H206C406.2,502.2,350.2,156.5,350.2,156.5z"/>
	<path class="st2" d="M290.1,156.5h-21.5H164.3h-28.4c-5.8,0-10.5,4.7-10.5,10.5v320.4V529c10.1-8.9,19.5-18,28.4-27.3
		c58-60.4,91.4-127,110.7-185.5h-54.7c0,0,0.9,38.3-26.2,59.3v-98.1h92.1c9.7-39.4,13.1-72.8,14.2-94.7
		C290.6,166.8,290.2,157.9,290.1,156.5z"/>
	<path d="M275.6,277.4L275.6,277.4c0,0.1,0,0.1,0,0.2C275.5,277.5,275.6,277.5,275.6,277.4z"/>
	<path d="M264.4,316.2c0,0,0.2-0.5,0.5-1.4C264.7,315.3,264.6,315.8,264.4,316.2L264.4,316.2z"/>
</g>
<g>
	<g>
		<path class="st2" d="M647.3,97.8v28.7c-14-11.7-28.5-17.6-43.4-17.6c-16.5,0-30.4,5.9-41.7,17.8c-11.4,11.8-17,26.2-17,43.2
			c0,16.8,5.7,31,17,42.6c11.4,11.6,25.3,17.4,41.8,17.4c8.5,0,15.8-1.4,21.7-4.2c3.3-1.4,6.8-3.3,10.3-5.6
			c3.6-2.4,7.3-5.2,11.3-8.5v29.2c-13.9,7.8-28.4,11.7-43.6,11.7c-22.9,0-42.5-8-58.7-24c-16.1-16.1-24.2-35.6-24.2-58.4
			c0-20.4,6.8-38.7,20.3-54.7C557.6,95.8,579.1,86,605.5,86C619.9,86,633.8,89.9,647.3,97.8z"/>
		<path class="st2" d="M775.9,210.6h-68.7l-17.9,39h-26.1l79.4-170.5l76.6,170.5h-26.5L775.9,210.6z M766,187.8l-23.8-54.5
			l-24.9,54.5H766z M779.4,46L737,74.7L725.5,65l33.4-33.5L779.4,46z"/>
		<path class="st2" d="M833.7,249.6l33.8-172.5l55.1,124.7l57-124.7l30.3,172.5h-24.8l-15.5-96.8l-47.5,104.2L876,152.6l-17.2,96.9
			H833.7z"/>
		<path class="st2" d="M1138.1,210.6h-68.7l-17.9,39h-26.1l79.4-170.5l76.6,170.5h-26.5L1138.1,210.6z M1128.2,187.8l-23.8-54.5
			l-24.9,54.5H1128.2z"/>
		<path class="st2" d="M1255.8,181.2l49.7,68.4h-29.6l-45.8-65.7h-4.4v65.7h-24.2V89.1h28.4c21.2,0,36.5,4,45.9,11.9
			c10.4,8.9,15.6,20.6,15.6,35.1c0,11.4-3.3,21.1-9.8,29.3C1275.1,173.7,1266.5,178.9,1255.8,181.2z M1225.7,162.8h7.7
			c22.9,0,34.4-8.8,34.4-26.3c0-16.4-11.2-24.6-33.5-24.6h-8.6V162.8z"/>
		<path class="st2" d="M1423.8,210.6h-68.7l-17.9,39h-26.1l79.4-170.5l76.6,170.5h-26.5L1423.8,210.6z M1414,187.8l-23.8-54.5
			l-24.9,54.5H1414z"/>
	</g>
	<g>
		<path class="st1" d="M552.9,599.8v137.7h47.2v22.8h-71.4V599.8H552.9z"/>
		<path class="st1" d="M726.2,721.3h-68.7l-17.9,39h-26.1L693,589.8l76.6,170.5h-26.5L726.2,721.3z M716.4,698.5L692.6,644
			l-24.9,54.5H716.4z"/>
		<path class="st1" d="M849.7,760.3l33.8-172.5l55.1,124.7l57-124.7l30.3,172.5h-24.8l-15.5-96.8l-47.5,104.2L892,663.3l-17.2,96.9
			H849.7z"/>
		<path class="st1" d="M1154.1,721.3h-68.7l-17.9,39h-26.1l79.4-170.5l76.6,170.5h-26.5L1154.1,721.3z M1144.2,698.5l-23.8-54.5
			l-24.9,54.5H1144.2z"/>
		<path class="st1" d="M1217.5,760.3V588.9l117,122.4V599.8h24.2V770l-117-122.1v112.3H1217.5z"/>
		<path class="st1" d="M1492.6,721.3h-68.7l-17.9,39H1380l79.4-170.5l76.6,170.5h-26.5L1492.6,721.3z M1482.7,698.5L1459,644
			l-24.9,54.5H1482.7z M1496.1,556.7l-42.4,28.7l-11.5-9.7l33.4-33.5L1496.1,556.7z"/>
	</g>
	<g>
		<path class="st2" d="M844.3,353.1v28.7c-14-11.7-28.5-17.6-43.4-17.6c-16.5,0-30.4,5.9-41.7,17.8c-11.4,11.8-17,26.2-17,43.2
			c0,16.8,5.7,31,17,42.6c11.4,11.6,25.3,17.4,41.8,17.4c8.5,0,15.8-1.4,21.7-4.2c3.3-1.4,6.8-3.3,10.3-5.6
			c3.6-2.4,7.3-5.2,11.3-8.5v29.2c-13.9,7.8-28.4,11.7-43.6,11.7c-22.9,0-42.5-8-58.7-24c-16.1-16.1-24.2-35.6-24.2-58.4
			c0-20.4,6.8-38.7,20.3-54.7c16.6-19.6,38.1-29.4,64.5-29.4C816.9,341.4,830.8,345.3,844.3,353.1z"/>
		<path class="st2" d="M865.8,424c0-22.6,8.3-42,24.8-58.2c16.5-16.2,36.3-24.3,59.4-24.3c22.9,0,42.5,8.2,58.8,24.5
			c16.4,16.3,24.6,36,24.6,58.9c0,23.1-8.2,42.6-24.7,58.7c-16.6,16.1-36.5,24.2-60,24.2c-20.7,0-39.3-7.2-55.8-21.5
			C874.8,470.5,865.8,449.7,865.8,424z M890.2,424.3c0,17.7,6,32.3,17.9,43.7c11.8,11.4,25.5,17.1,41,17.1c16.8,0,31-5.8,42.6-17.5
			c11.6-11.8,17.4-26.1,17.4-43c0-17.1-5.7-31.4-17.1-43c-11.4-11.6-25.4-17.5-42.2-17.5c-16.7,0-30.8,5.8-42.3,17.5
			C895.9,393.2,890.2,407.4,890.2,424.3z"/>
		<path class="st2" d="M1058.3,504.9l33.8-172.5l55.1,124.7l57-124.7l30.3,172.5h-24.8l-15.5-96.8l-47.5,104.2L1100.6,408
			l-17.2,96.9H1058.3z"/>
		<path class="st2" d="M1357,367.2h-64.3v38.5h62.4v22.8h-62.4v53.6h64.3v22.8h-88.5V344.5h88.5V367.2z"/>
		<path class="st2" d="M1443.2,436.5l49.7,68.4h-29.6l-45.8-65.7h-4.4v65.7h-24.2V344.5h28.4c21.2,0,36.5,4,45.9,11.9
			c10.4,8.9,15.6,20.6,15.6,35.1c0,11.4-3.3,21.1-9.8,29.3C1462.4,429,1453.8,434.3,1443.2,436.5z M1413,418.2h7.7
			c22.9,0,34.4-8.8,34.4-26.3c0-16.4-11.2-24.6-33.5-24.6h-8.6V418.2z"/>
		<path class="st2" d="M1631.8,353.1v28.7c-14-11.7-28.5-17.6-43.4-17.6c-16.5,0-30.4,5.9-41.7,17.8c-11.4,11.8-17,26.2-17,43.2
			c0,16.8,5.7,31,17,42.6c11.4,11.6,25.3,17.4,41.8,17.4c8.5,0,15.8-1.4,21.7-4.2c3.3-1.4,6.8-3.3,10.3-5.6
			c3.6-2.4,7.3-5.2,11.3-8.5v29.2c-13.9,7.8-28.4,11.7-43.6,11.7c-22.9,0-42.5-8-58.7-24c-16.1-16.1-24.2-35.6-24.2-58.4
			c0-20.4,6.8-38.7,20.3-54.7c16.6-19.6,38.1-29.4,64.5-29.4C1604.5,341.4,1618.4,345.3,1631.8,353.1z"/>
		<path class="st2" d="M1686.6,344.5v160.4h-24.2V344.5H1686.6z"/>
		<path class="st2" d="M1717.1,424c0-22.6,8.3-42,24.8-58.2c16.5-16.2,36.3-24.3,59.4-24.3c22.9,0,42.5,8.2,58.8,24.5
			c16.4,16.3,24.6,36,24.6,58.9c0,23.1-8.2,42.6-24.7,58.7c-16.6,16.1-36.5,24.2-60,24.2c-20.7,0-39.3-7.2-55.8-21.5
			C1726.2,470.5,1717.1,449.7,1717.1,424z M1741.6,424.3c0,17.7,6,32.3,17.9,43.7c11.8,11.4,25.5,17.1,41,17.1
			c16.8,0,31-5.8,42.6-17.5c11.6-11.8,17.4-26.1,17.4-43c0-17.1-5.7-31.4-17.1-43c-11.4-11.6-25.4-17.5-42.2-17.5
			c-16.7,0-30.8,5.8-42.3,17.5C1747.3,393.2,1741.6,407.4,1741.6,424.3z"/>
		<g>
			<path class="st2" d="M539.3,460.9v-77.3h16.2c7.8,0,13.9,0.8,18.4,2.3c4.8,1.5,9.2,4.1,13.2,7.7c8,7.3,12,16.8,12,28.7
				c0,11.9-4.2,21.5-12.5,28.8c-4.2,3.7-8.5,6.2-13.1,7.7c-4.3,1.4-10.3,2.2-18.2,2.2H539.3z M550.9,450h5.3c5.2,0,9.6-0.6,13.1-1.7
				c3.5-1.2,6.6-3,9.4-5.6c5.7-5.2,8.6-12.1,8.6-20.5c0-8.5-2.8-15.4-8.5-20.6c-5.1-4.7-12.6-7.1-22.6-7.1h-5.3V450z"/>
			<path class="st2" d="M656.4,394.6h-31v18.6h30.1v11h-30.1V450h31v11h-42.6v-77.3h42.6V394.6z"/>
		</g>
		<rect x="539.3" y="341.5" class="st1" width="117.1" height="6.1"/>
		<rect x="539.3" y="504.8" class="st1" width="117.1" height="6.1"/>
	</g>
</g>
<text transform="matrix(1 0 0 1 49.3984 914.4716)" class="st2 st6 st7">Conectando negocios, creando oportunidades</text>
</svg>
