<?xml version="1.0" encoding="utf-8"?>
<!-- Generator: Adobe Illustrator 27.5.0, SVG Export Plug-In . SVG Version: 6.00 Build 0)  -->
<svg version="1.1" id="Capa_1" xmlns="http://www.w3.org/2000/svg" xmlns:xlink="http://www.w3.org/1999/xlink" x="0px" y="0px"
	 viewBox="0 0 1200 1200" style="enable-background:new 0 0 1200 1200;" xml:space="preserve">
<style type="text/css">
	.st0{fill:none;}
	.st1{fill:#00D084;}
	.st2{fill:#3A5683;}
	.st3{fill:#2708A0;}
	.st4{fill:#62B6CB;}
	.st5{fill:#FFF500;}
</style>
<g>
	<path d="M444.3,886V411.4c0-17.2,0-69.9,0-69.9c0-11.7,9.1-27.5,27.5-27.5l339,0v-55l-394,0c-20.6,0.5-27.5,17.7-27.5,27.5
		c0,2.6,0,71.1,0,71.6c0,0.6,0,1.3,0,1.9c0,0,0,0,0,0v581h420.9v-55H444.3z"/>
	<path d="M606.8,865h192.8h10.5l-0.9-342C809.3,523,810.2,731.5,606.8,865z"/>
	<path class="st0" d="M810.2,427.8v12.7C810.3,435.4,810.3,431.1,810.2,427.8z"/>
	<path d="M799.7,336.9h-78.5l-0.9,178c0.9,172.1-88.9,285.8-88.9,285.8C790.8,661.5,809,497.2,810.2,440.5v-12.7v-80.4v-10.5H799.7z
		"/>
	<path d="M690.1,336.9c0,0-10.1,249-224.8,394.6v123V865h10.5h70.1C746,682.6,690.1,336.9,690.1,336.9z"/>
	<path d="M630,336.9h-21.5H504.2h-28.4c-5.8,0-10.5,4.7-10.5,10.5v320.4v41.6c10.1-8.9,19.5-18,28.4-27.3
		c58-60.4,91.4-127,110.7-185.5h-54.7c0,0,0.9,38.3-26.2,59.3v-98.1h92.1c9.7-39.4,13.1-72.8,14.2-94.7
		C630.5,347.3,630.1,338.4,630,336.9z"/>
	<path d="M615.4,457.9L615.4,457.9c0,0.1,0,0.1,0,0.2C615.4,458,615.4,457.9,615.4,457.9z"/>
	<path d="M604.3,496.7c0,0,0.2-0.5,0.5-1.4C604.6,495.7,604.5,496.2,604.3,496.7L604.3,496.7z"/>
</g>
</svg>
